<svg xmlns="http://www.w3.org/2000/svg" version="1.1" xmlns:xlink="http://www.w3.org/1999/xlink" xmlns:svgjs="http://svgjs.com/svgjs" width="1440" height="560" preserveAspectRatio="none" viewBox="0 0 1440 560"><g mask="url(&quot;#SvgjsMask4366&quot;)" fill="none"><use xlink:href="#SvgjsG4375" transform="translate(0, 0)" fill="rgba(8, 230, 234, 1)"></use><use xlink:href="#SvgjsG4375" transform="translate(868, 0)" fill="rgba(8, 230, 234, 1)"></use></g><defs><mask id="SvgjsMask4366"><rect width="1440" height="560" fill="#ffffff"></rect></mask><g id="SvgjsG4367"><path d="M7.713 15.485C3.459 15.485 0 12.025 0 7.768 0 3.513 3.459 0.051 7.713 0.051S15.432 3.513 15.432 7.768c0 4.257-3.465 7.716-7.719 7.717z m0-1.91c3.201 0 5.81-2.604 5.81-5.809 0-3.199-2.61-5.807-5.81-5.807-3.202 0-5.804 2.609-5.804 5.807-0.001 3.206 2.602 5.809 5.804 5.809z"></path><path d="M7.753 8.787a0.574 0.574 0 0 1-0.554-0.042 0.578 0.578 0 0 1-0.259-0.399L6.931 3.862a0.58 0.58 0 0 1 1.162 0v3.478l2.975-1.4a0.578 0.578 0 0 1 0.773 0.275c0.138 0.292 0.011 0.637-0.276 0.774l-3.81 1.798z"></path></g><g id="SvgjsG4368"><path d="M2.524 8.637H0.014V7.308h2.51v1.329zM3.656 4.576L1.884 2.804l0.935-0.935 1.772 1.772-0.935 0.935z m0 6.817l0.935 0.935-1.772 1.773-0.934-0.936 1.771-1.772z m4.997-8.884h-1.33V-0.002h1.33v2.511z m-1.33 10.952h1.33v2.51h-1.33v-2.509zM12.344 4.576l-0.96-0.935 1.796-1.772 0.935 0.935-1.772 1.772z m0 6.792l1.771 1.797-0.935 0.936-1.771-1.774 0.936-0.96z m3.643-4.06v1.329h-2.51V7.308h2.509z"></path><path d="M3.702 7.984a4.184 4.184 0 1 0 8.368 0 4.184 4.184 0 1 0-8.368 0"></path></g><g id="SvgjsG4369"><path d="M9.46 6.313c-1.577 0-2.86 1.283-2.86 2.86s1.283 2.86 2.86 2.86 2.86-1.283 2.86-2.86-1.283-2.86-2.86-2.86z"></path><path d="M13.26 3.839l-0.624-1.912h-6.352L5.661 3.839H0v10.668h16v-10.668H13.26zM3.744 6.743H1.543v-1.176H3.744v1.176z m5.716 6.624c-2.312 0-4.193-1.881-4.193-4.194s1.881-4.194 4.193-4.193 4.193 1.881 4.194 4.193-1.88 4.194-4.193 4.194z"></path></g><g id="SvgjsG4370"><path d="M13.856 7.297c1.344 0 2.144 0.801 2.144 2.027v5.74c0 0.444-0.04 0.805-0.04 0.804H9.822V10.29h-0.25l-1.139 1.7c-0.186 0.253-0.562 0.376-0.863 0.375H4.896a0.804 0.804 0 0 1-0.805-0.804c0-0.443 0.36-0.793 0.805-0.793h2.432L9.016 8.216c0.405-0.617 1.155-0.911 1.832-0.911 0 1.795 0.448 2.554 1.256 2.554v2.983a0.64 0.64 0 0 0-0.387 0.588 0.632 0.632 0 0 0 0.634 0.635c0.353 0 0.636-0.291 0.636-0.644 0-0.264-0.16-0.49-0.387-0.588V9.85c0.808 0 1.256-0.759 1.256-2.554"></path><path d="M13.352 7.297c-0.014 1.84-0.332 2.082-1 2.082-0.667 0-0.986-0.242-1-2.082h2z m-1.012-4.144c1.014 0 1.836 0.822 1.836 1.837 0 1.013-0.822 1.836-1.837 1.835-1.014 0-1.837-0.822-1.837-1.836S11.325 3.152 12.339 3.152m-4.512 0.251c0.224 0 0.406-0.182 0.407-0.406s-0.182-0.406-0.407-0.407a0.406 0.406 0 0 0 0 0.814M4.922 1.163a0.579 0.579 0 0 0 0.579-0.579c0-0.32-0.259-0.58-0.579-0.58a0.58 0.58 0 0 0-0.58 0.58c0 0.32 0.259 0.579 0.58 0.579m-3.146 0.004c0.325 0 0.589-0.261 0.589-0.584 0-0.322-0.264-0.583-0.589-0.583C1.452 0 1.189 0.261 1.189 0.583c0 0.322 0.263 0.584 0.588 0.584"></path><path d="M7.276 6.914a0.24 0.24 0 0 0 0.241 0.238c0.131 0 0.237-0.107 0.236-0.238v-1.427h0.187v1.426c0 0.131 0.107 0.238 0.238 0.239s0.24-0.107 0.24-0.239V4.246h0.184v0.904a0.178 0.178 0 0 0 0.178 0.178 0.176 0.176 0 0 0 0.176-0.178v-1.027c0-0.288-0.253-0.522-0.54-0.522 0 0-1.103 0.001-1.108 0.002l-0.357-0.035-0.459-1.598c-0.185-0.645-0.725-0.624-0.724-0.625h-1.487s-0.54-0.021-0.725 0.625l-0.24 0.837-0.24-0.837c-0.185-0.645-0.725-0.624-0.725-0.624h-1.15s-0.54-0.021-0.725 0.624L0.013 3.584c-0.045 0.15 0.029 0.291 0.161 0.329 0.132 0.037 0.276-0.054 0.311-0.174l0.45-1.573h0.22l-0.658 2.723H1.078v1.934a0.288 0.288 0 0 0 0.288 0.289c0.16 0 0.29-0.129 0.29-0.289v-1.935h0.245v1.935a0.289 0.289 0 0 0 0.578 0v-1.935h0.572L2.398 2.166h0.22l0.45 1.573c0.03 0.104 0.126 0.189 0.24 0.179 0.113 0.01 0.229-0.075 0.258-0.179l0.45-1.573h0.203v4.601a0.341 0.341 0 0 0 0.342 0.339c0.187 0 0.34-0.152 0.34-0.339V4.149h0.251v2.618a0.341 0.341 0 0 0 0.682 0V2.166h0.22l0.418 1.52c0.026 0.092 0.121 0.18 0.222 0.211l0.584 0.163V6.914z"></path></g><g id="SvgjsG4371"><path d="M1.704 6.537a0.658 0.658 0 1 0 1.316 0 0.658 0.658 0 1 0-1.316 0"></path><path d="M11.364 4.442a0.658 0.658 0 1 0 1.316 0 0.658 0.658 0 1 0-1.316 0"></path><path d="M12.05 8.032l-0.155 0.745 0.766 0.196 0.66-1.216 2.249-0.489L15.393 6.455l-0.772 0.168c0.243-0.579-0.162-0.817-0.162-0.816L12.839 4.738l-0.651 0.464-0.632 0.965s-0.305 0.466-0.019 0.715l0.03 0.403-7.612 1.65-0.14-0.377c0.157-0.345-0.314-0.644-0.314-0.644L2.527 7.298 1.741 7.145 0.709 8.789s-0.27 0.384 0.191 0.81l-0.772 0.168 0.177 0.813 2.248-0.487 1.105 0.833 0.616-0.495-0.45-0.614 8.226-1.785z m-8.828 1.063l-0.862-0.414 0.213-0.658 0.866 0.408 0.211 0.572-0.427 0.093z m9.076-1.968l-0.428 0.093-0.044-0.608 0.619-0.73 0.467 0.511-0.614 0.734z"></path><path d="M8.651 12.262V9.644l-0.802-0.701-0.802 0.701v2.618h1.603z"></path></g><g id="SvgjsG4372"><path d="M14.159 8.927V5.732c0-0.453 0.371-0.822 0.828-0.822a0.822 0.822 0 0 1 0.821 0.822V10.107c0 0.605-0.218 1.189-0.608 1.646L12.472 14.65c-0.271 0.255-0.337 0.481-0.337 0.823V16h-2.97l-0.003-1.255c0-0.478-0.039-1.117 0.559-1.743l3.462-3.476a0.654 0.654 0 0 1 0.456-0.184 0.657 0.657 0 0 1 0.657 0.655c0 0.156-0.055 0.308-0.156 0.427l-1.67 1.789c-0.108 0.127-0.291 0.366-0.382 0.659-0.049 0.152-0.063 0.301-0.066 0.47h0.537c0.002-0.121 0.011-0.218 0.04-0.308 0.053-0.169 0.157-0.321 0.237-0.419l1.694-1.86c0.213-0.215 0.33-0.493 0.33-0.786 0-0.439-0.264-0.843-0.7-1.042z m-12.51 0V5.732c0-0.453-0.371-0.822-0.827-0.822A0.822 0.822 0 0 0 0 5.732V10.107c0 0.605 0.218 1.189 0.608 1.646l2.729 2.897c0.27 0.255 0.337 0.481 0.337 0.822V16h2.969l0.003-1.255c0-0.478 0.039-1.117-0.559-1.743L2.626 9.526a0.654 0.654 0 0 0-0.457-0.184 0.657 0.657 0 0 0-0.5 1.083l1.669 1.788c0.108 0.127 0.291 0.366 0.382 0.659 0.049 0.152 0.063 0.301 0.066 0.471h-0.537c-0.002-0.121-0.011-0.219-0.04-0.309-0.053-0.169-0.157-0.321-0.236-0.418L1.278 10.755c-0.213-0.215-0.33-0.493-0.33-0.786 0-0.439 0.264-0.843 0.701-1.042z m6.568-7.512a0.705 0.705 0 0 0 0-1.41 0.705 0.705 0 0 0 0 1.41z m-3.825 0.004c-0.395 0-0.715-0.317-0.715-0.71 0-0.392 0.32-0.709 0.715-0.709s0.716 0.317 0.716 0.709c0 0.393-0.321 0.71-0.716 0.71z"></path><path d="M11.225 3.646a0.494 0.494 0 1 0 0.988 0 0.494 0.494 0 1 0-0.988 0"></path><path d="M12.435 4.384h-1.334c-0.006 0-0.446-0.04-0.446-0.04l-0.559-1.947c-0.225-0.784-0.883-0.76-0.882-0.76h-1.808s-0.657-0.024-0.882 0.76l-0.276 0.959-0.275-0.959c-0.226-0.784-0.882-0.76-0.881-0.76H3.693s-0.658-0.024-0.883 0.76l-0.563 1.962c-0.053 0.184 0.047 0.323 0.208 0.369 0.16 0.046 0.324-0.035 0.365-0.181l0.549-1.913 0.267 0L2.835 5.946h0.708v2.352c0 0.194 0.156 0.352 0.35 0.351 0.194 0 0.352-0.158 0.352-0.351v-2.352h0.297v2.352c0 0.194 0.156 0.352 0.35 0.351a0.352 0.352 0 0 0 0.352-0.351v-2.352h0.696l-0.793-3.312 0.266 0.001 0.543 1.892c0.009 0.032 0.023 0.062 0.042 0.087 0.053 0.08 0.146 0.125 0.249 0.122 0.103 0.003 0.195-0.041 0.249-0.12 0.022-0.028 0.037-0.061 0.046-0.098l0.54-1.884 0.246 0v5.595a0.415 0.415 0 0 0 0.415 0.414 0.413 0.413 0 0 0 0.413-0.414V5.046h0.306v3.183a0.413 0.413 0 0 0 0.413 0.414 0.415 0.415 0 0 0 0.417-0.414v-5.595l0.267 0 0.525 1.913c0.028 0.094 0.107 0.156 0.202 0.18 0.004 0.001 0.006 0.003 0.009 0.004 0.083 0.019 0.469 0.128 0.753 0.209v3.47a0.291 0.291 0 0 0 0.581 0V6.676h0.228v1.734c0 0.16 0.13 0.29 0.29 0.29s0.292-0.13 0.292-0.29v-3.242h0.223v1.098c0 0.12 0.098 0.218 0.217 0.218 0.119 0 0.214-0.097 0.214-0.218v-1.249c0-0.35-0.308-0.634-0.658-0.634z"></path></g><g id="SvgjsG4373"><path d="M2.115 12.192a1.05 1.05 0 1 1 0-2.1 1.05 1.05 0 0 1 0 2.1zM0 16V13.942c0-0.742 0.61-1.344 1.352-1.344h1.45c0.743 0 1.406 0.603 1.406 1.345V16H0z m13-3.897a1.051 1.051 0 0 0 1.05-1.05 1.05 1.05 0 0 0-2.099 0 1.05 1.05 0 0 0 1.051 1.049zM15.114 16V13.942c0-0.742-0.61-1.344-1.353-1.344h-1.448c-0.744 0-1.406 0.603-1.407 1.345V16h4.208z"></path><path d="M6.494 11.133a1.062 1.053 0 1 0 2.124 0 1.062 1.053 0 1 0-2.124 0"></path><path d="M4.998 16l0.836-2.277c0.335-1.163 1.31-1.128 1.309-1.127h0.828s0.974-0.036 1.309 1.127L10.116 16h-5.118z m2.558-7.25v-2.491l-0.414-0.414v2.49H0.885V0.414h6.257V4.483l0.414 0.414V0H0.474v8.75h7.082z m5.44-4.548a1.049 1.049 0 0 1-1.048-1.048c0-0.579 0.47-1.049 1.048-1.049a1.047 1.047 0 0 1 1.047 1.048 1.046 1.046 0 0 1-1.048 1.048z"></path><path d="M8.329 6.958a0.441 0.441 0 0 0 0.442 0.442h1.454c0.165 0 0.382-0.066 0.474-0.205 0.314-0.464 0.643-0.953 0.741-1.1v2.749h3.661V6.025c0-0.737-0.576-1.401-1.256-1.4 0.002 0.346 0 0.118 0-0.015H12.082a1.343 1.343 0 0 0-1.119 0.599l-0.871 1.313-1.32-0.001L6.907 4.656a0.179 0.179 0 0 0-0.254 0 0.18 0.18 0 0 0 0 0.254l1.774 1.775c-0.038 0.063-0.098 0.192-0.097 0.273z"></path></g><g id="SvgjsG4374"><path d="M7.45 12.652S6.4 11.121 3.725 11.121C1.274 11.121 0 11.833 0 11.833V1.937s1.274-0.712 3.725-0.729C6.4 1.19 7.45 2.756 7.45 2.756V12.652z m1.087 0s1.05-1.531 3.725-1.531c2.451 0 3.725 0.712 3.725 0.713V1.937s-1.274-0.712-3.725-0.729c-2.675-0.017-3.725 1.548-3.725 1.548v9.896z"></path><path d="M8.012 15.733S6.4 13.411 3.725 13.411c-2.451 0-3.725 0.712-3.725 0.712v-1.186s1.274-0.712 3.725-0.729c2.675-0.018 4.287 2.34 4.287 2.34V15.733z m0 0s1.612-2.323 4.287-2.323c2.451 0 3.725 0.712 3.725 0.712v-1.185s-1.274-0.712-3.725-0.729c-2.675-0.019-4.287 2.339-4.287 2.339v1.185z"></path></g><g id="SvgjsG4375"><use xlink:href="#SvgjsG4367" transform="translate(0, 0) scale(2.8)" fill="rgba(8, 230, 234, 1)"></use><use xlink:href="#SvgjsG4368" transform="translate(0, 86.8) scale(2.8)" fill="rgba(8, 230, 234, 1)"></use><use xlink:href="#SvgjsG4369" transform="translate(0, 173.6) scale(2.8)" fill="rgba(8, 230, 234, 1)"></use><use xlink:href="#SvgjsG4370" transform="translate(0, 260.4) scale(2.8)" fill="rgba(8, 230, 234, 1)"></use><use xlink:href="#SvgjsG4371" transform="translate(0, 347.2) scale(2.8)" fill="rgba(8, 230, 234, 1)"></use><use xlink:href="#SvgjsG4372" transform="translate(0, 434) scale(2.8)" fill="rgba(8, 230, 234, 1)"></use><use xlink:href="#SvgjsG4373" transform="translate(0, 520.8) scale(2.8)" fill="rgba(8, 230, 234, 1)"></use><use xlink:href="#SvgjsG4368" transform="translate(86.8, 0) scale(2.8)" fill="rgba(8, 230, 234, 1)"></use><use xlink:href="#SvgjsG4369" transform="translate(86.8, 86.8) scale(2.8)" fill="rgba(8, 230, 234, 1)"></use><use xlink:href="#SvgjsG4370" transform="translate(86.8, 173.6) scale(2.8)" fill="rgba(8, 230, 234, 1)"></use><use xlink:href="#SvgjsG4371" transform="translate(86.8, 260.4) scale(2.8)" fill="rgba(8, 230, 234, 1)"></use><use xlink:href="#SvgjsG4372" transform="translate(86.8, 347.2) scale(2.8)" fill="rgba(8, 230, 234, 1)"></use><use xlink:href="#SvgjsG4373" transform="translate(86.8, 434) scale(2.8)" fill="rgba(8, 230, 234, 1)"></use><use xlink:href="#SvgjsG4374" transform="translate(86.8, 520.8) scale(2.8)" fill="rgba(8, 230, 234, 1)"></use><use xlink:href="#SvgjsG4369" transform="translate(173.6, 0) scale(2.8)" fill="rgba(8, 230, 234, 1)"></use><use xlink:href="#SvgjsG4370" transform="translate(173.6, 86.8) scale(2.8)" fill="rgba(8, 230, 234, 1)"></use><use xlink:href="#SvgjsG4371" transform="translate(173.6, 173.6) scale(2.8)" fill="rgba(8, 230, 234, 1)"></use><use xlink:href="#SvgjsG4372" transform="translate(173.6, 260.4) scale(2.8)" fill="rgba(8, 230, 234, 1)"></use><use xlink:href="#SvgjsG4373" transform="translate(173.6, 347.2) scale(2.8)" fill="rgba(8, 230, 234, 1)"></use><use xlink:href="#SvgjsG4374" transform="translate(173.6, 434) scale(2.8)" fill="rgba(8, 230, 234, 1)"></use><use xlink:href="#SvgjsG4367" transform="translate(173.6, 520.8) scale(2.8)" fill="rgba(8, 230, 234, 1)"></use><use xlink:href="#SvgjsG4370" transform="translate(260.4, 0) scale(2.8)" fill="rgba(8, 230, 234, 1)"></use><use xlink:href="#SvgjsG4371" transform="translate(260.4, 86.8) scale(2.8)" fill="rgba(8, 230, 234, 1)"></use><use xlink:href="#SvgjsG4372" transform="translate(260.4, 173.6) scale(2.8)" fill="rgba(8, 230, 234, 1)"></use><use xlink:href="#SvgjsG4373" transform="translate(260.4, 260.4) scale(2.8)" fill="rgba(8, 230, 234, 1)"></use><use xlink:href="#SvgjsG4374" transform="translate(260.4, 347.2) scale(2.8)" fill="rgba(8, 230, 234, 1)"></use><use xlink:href="#SvgjsG4367" transform="translate(260.4, 434) scale(2.8)" fill="rgba(8, 230, 234, 1)"></use><use xlink:href="#SvgjsG4368" transform="translate(260.4, 520.8) scale(2.8)" fill="rgba(8, 230, 234, 1)"></use><use xlink:href="#SvgjsG4371" transform="translate(347.2, 0) scale(2.8)" fill="rgba(8, 230, 234, 1)"></use><use xlink:href="#SvgjsG4372" transform="translate(347.2, 86.8) scale(2.8)" fill="rgba(8, 230, 234, 1)"></use><use xlink:href="#SvgjsG4373" transform="translate(347.2, 173.6) scale(2.8)" fill="rgba(8, 230, 234, 1)"></use><use xlink:href="#SvgjsG4374" transform="translate(347.2, 260.4) scale(2.8)" fill="rgba(8, 230, 234, 1)"></use><use xlink:href="#SvgjsG4367" transform="translate(347.2, 347.2) scale(2.8)" fill="rgba(8, 230, 234, 1)"></use><use xlink:href="#SvgjsG4368" transform="translate(347.2, 434) scale(2.8)" fill="rgba(8, 230, 234, 1)"></use><use xlink:href="#SvgjsG4369" transform="translate(347.2, 520.8) scale(2.8)" fill="rgba(8, 230, 234, 1)"></use><use xlink:href="#SvgjsG4372" transform="translate(434, 0) scale(2.8)" fill="rgba(8, 230, 234, 1)"></use><use xlink:href="#SvgjsG4373" transform="translate(434, 86.8) scale(2.8)" fill="rgba(8, 230, 234, 1)"></use><use xlink:href="#SvgjsG4374" transform="translate(434, 173.6) scale(2.8)" fill="rgba(8, 230, 234, 1)"></use><use xlink:href="#SvgjsG4367" transform="translate(434, 260.4) scale(2.8)" fill="rgba(8, 230, 234, 1)"></use><use xlink:href="#SvgjsG4368" transform="translate(434, 347.2) scale(2.8)" fill="rgba(8, 230, 234, 1)"></use><use xlink:href="#SvgjsG4369" transform="translate(434, 434) scale(2.8)" fill="rgba(8, 230, 234, 1)"></use><use xlink:href="#SvgjsG4370" transform="translate(434, 520.8) scale(2.8)" fill="rgba(8, 230, 234, 1)"></use><use xlink:href="#SvgjsG4373" transform="translate(520.8, 0) scale(2.8)" fill="rgba(8, 230, 234, 1)"></use><use xlink:href="#SvgjsG4374" transform="translate(520.8, 86.8) scale(2.8)" fill="rgba(8, 230, 234, 1)"></use><use xlink:href="#SvgjsG4367" transform="translate(520.8, 173.6) scale(2.8)" fill="rgba(8, 230, 234, 1)"></use><use xlink:href="#SvgjsG4368" transform="translate(520.8, 260.4) scale(2.8)" fill="rgba(8, 230, 234, 1)"></use><use xlink:href="#SvgjsG4369" transform="translate(520.8, 347.2) scale(2.8)" fill="rgba(8, 230, 234, 1)"></use><use xlink:href="#SvgjsG4370" transform="translate(520.8, 434) scale(2.8)" fill="rgba(8, 230, 234, 1)"></use><use xlink:href="#SvgjsG4371" transform="translate(520.8, 520.8) scale(2.8)" fill="rgba(8, 230, 234, 1)"></use><use xlink:href="#SvgjsG4374" transform="translate(607.6, 0) scale(2.8)" fill="rgba(8, 230, 234, 1)"></use><use xlink:href="#SvgjsG4367" transform="translate(607.6, 86.8) scale(2.8)" fill="rgba(8, 230, 234, 1)"></use><use xlink:href="#SvgjsG4368" transform="translate(607.6, 173.6) scale(2.8)" fill="rgba(8, 230, 234, 1)"></use><use xlink:href="#SvgjsG4369" transform="translate(607.6, 260.4) scale(2.8)" fill="rgba(8, 230, 234, 1)"></use><use xlink:href="#SvgjsG4370" transform="translate(607.6, 347.2) scale(2.8)" fill="rgba(8, 230, 234, 1)"></use><use xlink:href="#SvgjsG4371" transform="translate(607.6, 434) scale(2.8)" fill="rgba(8, 230, 234, 1)"></use><use xlink:href="#SvgjsG4372" transform="translate(607.6, 520.8) scale(2.8)" fill="rgba(8, 230, 234, 1)"></use><use xlink:href="#SvgjsG4367" transform="translate(694.4, 0) scale(2.8)" fill="rgba(8, 230, 234, 1)"></use><use xlink:href="#SvgjsG4368" transform="translate(694.4, 86.8) scale(2.8)" fill="rgba(8, 230, 234, 1)"></use><use xlink:href="#SvgjsG4369" transform="translate(694.4, 173.6) scale(2.8)" fill="rgba(8, 230, 234, 1)"></use><use xlink:href="#SvgjsG4370" transform="translate(694.4, 260.4) scale(2.8)" fill="rgba(8, 230, 234, 1)"></use><use xlink:href="#SvgjsG4371" transform="translate(694.4, 347.2) scale(2.8)" fill="rgba(8, 230, 234, 1)"></use><use xlink:href="#SvgjsG4372" transform="translate(694.4, 434) scale(2.8)" fill="rgba(8, 230, 234, 1)"></use><use xlink:href="#SvgjsG4373" transform="translate(694.4, 520.8) scale(2.8)" fill="rgba(8, 230, 234, 1)"></use><use xlink:href="#SvgjsG4368" transform="translate(781.1999999999999, 0) scale(2.8)" fill="rgba(8, 230, 234, 1)"></use><use xlink:href="#SvgjsG4369" transform="translate(781.1999999999999, 86.8) scale(2.8)" fill="rgba(8, 230, 234, 1)"></use><use xlink:href="#SvgjsG4370" transform="translate(781.1999999999999, 173.6) scale(2.8)" fill="rgba(8, 230, 234, 1)"></use><use xlink:href="#SvgjsG4371" transform="translate(781.1999999999999, 260.4) scale(2.8)" fill="rgba(8, 230, 234, 1)"></use><use xlink:href="#SvgjsG4372" transform="translate(781.1999999999999, 347.2) scale(2.8)" fill="rgba(8, 230, 234, 1)"></use><use xlink:href="#SvgjsG4373" transform="translate(781.1999999999999, 434) scale(2.8)" fill="rgba(8, 230, 234, 1)"></use><use xlink:href="#SvgjsG4374" transform="translate(781.1999999999999, 520.8) scale(2.8)" fill="rgba(8, 230, 234, 1)"></use></g></defs></svg>